<?xml version="1.0" standalone="no"?>
<!DOCTYPE svg PUBLIC "-//W3C//DTD SVG 20010904//EN"
 "http://www.w3.org/TR/2001/REC-SVG-20010904/DTD/svg10.dtd">
<svg version="1.0" xmlns="http://www.w3.org/2000/svg"
 width="119.400000pt" height="119.400000pt" viewBox="0 0 119.400000 119.400000"
 preserveAspectRatio="xMidYMid meet">

<g transform="translate(29.400000,104.700000) scale(0.100000,-0.100000)"
fill="#777777" stroke="none">
<path d="M28 893 c-10 -2 -20 -18 -23 -36 -9 -49 -1 -834 8 -844 11 -11 863
-11 874 0 11 11 11 863 0 874 -9 8 -829 15 -859 6z m715 -172 c15 -14 27 -30
27 -36 0 -6 -18 -21 -40 -34 -39 -22 -170 -146 -170 -161 0 -5 -6 -15 -14 -23
-22 -22 -116 -212 -149 -302 -13 -35 -16 -37 -23 -20 -22 57 -169 228 -219
255 -33 18 -32 39 7 82 23 25 38 34 50 29 24 -9 95 -77 115 -112 10 -16 20
-29 23 -29 4 0 19 28 35 62 68 148 169 264 280 324 22 12 30 8 78 -35z"/>
</g>
</svg>
